<?xml version="1.0" encoding="UTF-8" standalone="yes"?><svg xmlns="http://www.w3.org/2000/svg" xmlns:xlink="http://www.w3.org/1999/xlink" version="1.2" baseProfile="tiny" x="0" y="0" width="256" height="256" viewBox="0 0 256 256"><defs/><defs/><defs/><defs/><g transform="matrix(9.15285,0,0,9.15285,-18.3749,-18.4456)"><g id="Page-1" fill="none" fill-rule="evenodd"><g id="分组-183" fill="#262626" fill-rule="nonzero" transform="matrix(1,0,0,1,-126,-126)"><g id="gongzuo" transform="matrix(1,0,0,1,128,129)"><path id="形状" fill="#ffffff" fill-opacity="1" stroke-width="25.8443" d="M 17.4044 15.6687 L 17.4044 16.1239 C 17.4044 16.4222 17.1545 16.6734 16.8578 16.6734 L 11.189 16.6734 C 10.8923 16.6734 10.6424 16.4222 10.6424 16.1239 L 10.6424 15.6687 L 0.00756427 15.6687 L 0.00756427 23.7375 C 0.00756427 24.9777 1.00702 25.9823 2.22512 25.9823 L 25.7593 25.9823 C 26.993 25.9823 27.9768 24.9777 27.9768 23.7375 L 27.9768 15.6687 L 17.4044 15.6687 M 10.6424 14.0047 L 10.6424 13.5494 C 10.6424 13.2512 10.8923 13 11.189 13 L 16.8578 13 C 17.1545 13 17.4044 13.2512 17.4044 13.5494 L 17.4044 14.0047 L 27.977 14.0047 L 27.9768 6.15562 C 27.9924 4.91547 26.993 3.91079 25.7749 3.91079 L 19.2784 3.91079 L 19.2784 1.82294 C 19.2784 0.912453 18.5444 0.0176604 17.6387 0.0176604 L 10.377 0.0176604 C 9.4712 0.0176604 8.73722 0.912453 8.73722 1.82294 L 8.73722 3.91079 L 2.22512 3.91079 C 1.00702 3.91079 0.00756427 4.91547 0.00756427 6.15562 L 0.00756427 14.0047 L 10.6424 14.0047 M 10.7049 2.27819 C 10.7049 2.05842 10.8767 1.87004 11.1109 1.87004 L 16.8891 1.87004 C 17.1077 1.87004 17.2951 2.04272 17.2951 2.27819 L 17.2951 3.89509 L 10.7049 3.89509 L 10.7049 2.27819"/></g></g><g id="IIIII-Copy-40" transform="matrix(1,0,0,1,-128,-128)"/></g></g></svg>
