<?xml version="1.0" encoding="UTF-8" standalone="yes"?><svg xmlns="http://www.w3.org/2000/svg" xmlns:xlink="http://www.w3.org/1999/xlink" version="1.2" baseProfile="tiny" x="0" y="0" width="256" height="256" viewBox="0 0 256 256"><defs/><defs/><defs/><defs/><defs/><g transform="matrix(0.348044,0,0,0.348044,-50.1985,-50.1183)"><g id="Page-1" fill="none" fill-rule="evenodd"><g id="页面"/><path id="合并形状" fill="#ffffff" fill-opacity="1" stroke-width="0.726254" d="M 628.236 781.768 C 593.941 793.949 557.022 800.58 518.555 800.58 C 477.497 800.58 438.201 793.026 401.979 779.231 L 348.978 871.13 C 344.343 879.167 334.07 881.925 326.032 877.29 C 323.154 875.63 320.833 873.155 319.362 870.176 L 285.834 802.294 C 282.83 796.21 276.46 792.532 269.689 792.969 L 194.189 797.843 C 184.93 798.441 176.939 791.42 176.341 782.161 C 176.128 778.853 176.897 775.556 178.553 772.685 L 246.257 655.293 C 211.122 603.005 190.618 540.045 190.618 472.29 C 190.618 290.98 337.44 144 518.555 144 C 699.669 144 846.491 290.98 846.491 472.29 C 846.491 542.92 824.21 608.34 786.301 661.892 L 845.447 764.445 C 847.103 767.317 847.872 770.613 847.659 773.921 C 847.061 783.18 839.07 790.201 829.811 789.604 L 754.311 784.729 C 747.54 784.292 741.17 787.971 738.166 794.055 L 704.638 861.937 C 703.167 864.915 700.846 867.39 697.968 869.05 C 689.93 873.685 679.657 870.928 675.022 862.89 L 628.236 781.768 M 518.555 751.336 C 672.502 751.336 797.301 626.403 797.301 472.29 C 797.301 318.177 672.502 193.243 518.555 193.243 C 364.608 193.243 239.809 318.177 239.809 472.29 C 239.809 626.403 364.608 751.336 518.555 751.336 M 518.555 702.093 C 391.775 702.093 288.999 599.206 288.999 472.29 C 288.999 345.373 391.775 242.487 518.555 242.487 C 645.335 242.487 748.11 345.373 748.11 472.29 C 748.11 599.206 645.335 702.093 518.555 702.093 M 510.73 550.273 C 515.628 547.695 521.481 547.695 526.379 550.273 L 575.162 575.947 C 578.433 577.669 582.18 578.263 585.823 577.639 C 594.968 576.072 601.112 567.388 599.545 558.243 L 590.219 503.813 C 589.286 498.367 591.091 492.811 595.045 488.952 L 634.562 450.392 C 637.203 447.814 638.922 444.438 639.453 440.786 C 640.789 431.604 634.429 423.078 625.247 421.743 L 570.668 413.803 C 565.195 413.007 560.464 409.568 558.018 404.607 L 533.623 355.124 C 531.987 351.806 529.302 349.12 525.983 347.484 C 517.661 343.382 507.589 346.802 503.486 355.124 L 479.091 404.607 C 476.646 409.568 471.915 413.007 466.441 413.803 L 411.863 421.743 C 408.21 422.274 404.835 423.993 402.257 426.635 C 395.777 433.275 395.907 443.912 402.548 450.392 L 442.065 488.952 C 446.019 492.811 447.823 498.367 446.89 503.813 L 437.565 558.243 C 436.941 561.887 437.535 565.634 439.257 568.905 C 443.578 577.115 453.737 580.268 461.948 575.947 L 510.73 550.273"/></g></g></svg>
