<?xml version="1.0" encoding="UTF-8" standalone="yes"?><svg xmlns="http://www.w3.org/2000/svg" xmlns:xlink="http://www.w3.org/1999/xlink" version="1.2" baseProfile="tiny" x="0" y="0" width="256" height="256" viewBox="0 0 256 256"><defs/><defs/><defs/><defs/><g transform="matrix(9.4877,0,0,9.4877,-28.547,-23.9235)"><g id="Page-1" fill="none" fill-rule="evenodd"><g id="分组-183" fill="#262626" fill-rule="nonzero" transform="matrix(1,0,0,1,2,-190)"><g id="wenju" transform="matrix(1,0,0,1,1,193)"><path id="形状" fill="#ffffff" fill-opacity="1" stroke-width="23.9697" d="M 0.00884239 19.0348 L 0.00884239 6.77926 C 0.0114196 6.77927 0.0139984 6.77928 0.0165787 6.77928 L 6.60246 6.77928 C 6.65245 6.77928 6.70185 6.77756 6.75054 6.77421 L 6.75054 19.0348 C 6.72475 19.0338 6.69877 19.0334 6.67264 19.0334 L 0.0867519 19.0334 C 0.0606168 19.0334 0.0346414 19.0338 0.00884239 19.0348 M 0.0556864 21.0644 C 0.0660157 21.0645 0.0763712 21.0646 0.0867519 21.0646 L 6.67264 21.0646 C 6.68289 21.0646 6.69312 21.0645 6.70333 21.0644 C 6.68306 21.1285 6.65635 21.1905 6.62334 21.2494 L 4.28283 25.4516 C 4.1022 25.774 3.76384 25.9746 3.39241 25.9746 C 3.39496 25.9746 3.39241 25.9746 3.39241 25.9746 C 3.02353 25.9746 2.68517 25.7766 2.50454 25.4566 L 0.138588 21.2545 C 0.104065 21.1937 0.0764307 21.13 0.0556864 21.0644 M 0.00884239 4.74804 L 0.00884239 2.36131 C 0.00884239 1.10193 1.03663 0.0761472 2.29848 0.0761472 L 4.46091 0.0761472 C 5.72275 0.0761472 6.75054 1.10193 6.75054 2.36131 L 6.75054 4.7531 C 6.70185 4.74974 6.65245 4.74803 6.60246 4.74803 L 0.0165787 4.74803 C 0.0139984 4.74803 0.0114196 4.74803 0.00884239 4.74804"/><path id="形状" fill="#ffffff" fill-opacity="1" stroke-width="23.9697" d="M 8.61552 18.9257 C 8.70817 18.9394 8.80638 18.9468 8.90808 18.9468 L 10.2819 18.9468 C 10.8441 18.9468 11.2995 18.7221 11.2995 18.4447 C 11.2995 18.1672 10.8441 17.9425 10.2819 17.9425 L 8.90808 17.9425 C 8.80638 17.9425 8.70817 17.9499 8.61552 17.9636 L 8.61552 14.1264 C 8.70817 14.14 8.80638 14.1474 8.90808 14.1474 L 10.2819 14.1474 C 10.8441 14.1474 11.2995 13.9227 11.2995 13.6453 C 11.2995 13.3678 10.8441 13.1431 10.2819 13.1431 L 8.90808 13.1431 C 8.80638 13.1431 8.70817 13.1505 8.61552 13.1642 L 8.61552 9.32696 C 8.70817 9.34065 8.80638 9.348 8.90808 9.348 L 10.2819 9.348 C 10.8441 9.348 11.2995 9.1233 11.2995 8.84587 C 11.2995 8.56844 10.8441 8.34373 10.2819 8.34373 L 8.90808 8.34373 C 8.80638 8.34373 8.70817 8.35109 8.61552 8.36478 L 8.61552 1.55134 C 8.61552 0.61189 9.37873 0.0253659 10.1572 0.0253659 C 10.6126 0.0253659 11.0731 0.225952 11.3885 0.672827 L 26.7087 23.598 C 27.4236 24.6086 26.6985 26 25.4621 26 L 10.1419 26 C 9.29986 26 8.61552 25.317 8.61552 24.4766 L 8.61552 18.9257 M 13.8588 12.7613 C 13.5789 12.7613 13.3042 12.9721 13.3042 13.3098 L 13.3042 21.5516 C 13.3042 21.8537 13.551 22.1 13.8537 22.1 L 19.3615 22.1 C 19.8067 22.1 20.0662 21.5998 19.8093 21.2367 L 14.3014 12.9949 C 14.1895 12.8324 14.0241 12.7613 13.8588 12.7613"/></g></g><g id="IIIII-Copy-40" transform="matrix(1,0,0,1,0,-192)"/></g></g></svg>
