<?xml version="1.0" encoding="UTF-8" standalone="yes"?><svg xmlns="http://www.w3.org/2000/svg" xmlns:xlink="http://www.w3.org/1999/xlink" version="1.2" baseProfile="tiny" x="0" y="0" width="256" height="256" viewBox="0 0 256 256"><defs/><defs/><defs/><defs/><defs/><defs/><g transform="matrix(0.347826,0,0,0.347826,-50.087,-66.2236)"><g id="Page-1" fill="none" fill-rule="evenodd" stroke="none" stroke-width="1"><g id="页面"/><path id="合并形状" fill="#2c8e88" fill-opacity="1" transform="matrix(-1,0,0,1,1024,0)" d="M 849.327 252.785 L 636.02 252.785 C 617.631 252.785 605.347 265.028 605.347 283.347 L 605.347 436.151 L 389.305 436.151 C 370.919 436.151 358.632 448.389 358.632 466.712 L 358.632 619.516 L 174.673 619.516 C 156.284 619.516 144 631.755 144 650.077 L 144 833.438 C 144 851.761 156.284 864 174.673 864 L 849.327 864 C 867.716 864 880 851.761 880 833.438 L 880 283.267 C 880 264.945 867.716 252.785 849.327 252.785 M 187.823 751.551 L 187.823 731.72 C 187.823 722.041 195.669 714.196 205.347 714.196 L 319.293 714.196 C 328.971 714.196 336.817 722.041 336.817 731.72 L 336.817 751.551 C 336.817 761.23 328.971 769.075 319.293 769.075 L 205.347 769.075 C 195.669 769.075 187.823 761.23 187.823 751.551 M 435.979 566.592 L 549.925 566.592 C 559.603 566.592 567.449 558.746 567.449 549.068 L 567.449 529.236 C 567.449 519.558 559.603 511.712 549.925 511.712 L 435.979 511.712 C 426.301 511.712 418.455 519.558 418.455 529.236 L 418.455 549.068 C 418.455 558.746 426.301 566.592 435.979 566.592 M 666.694 349.782 L 666.694 329.95 C 666.694 320.272 674.539 312.426 684.218 312.426 L 801.212 312.426 C 810.89 312.426 818.735 320.272 818.735 329.95 L 818.735 349.782 C 818.735 359.46 810.89 367.306 801.212 367.306 L 684.218 367.306 C 674.539 367.306 666.694 359.46 666.694 349.782"/></g></g></svg>
