<?xml version="1.0" encoding="UTF-8" standalone="yes"?><svg xmlns="http://www.w3.org/2000/svg" xmlns:xlink="http://www.w3.org/1999/xlink" version="1.2" baseProfile="tiny" x="0" y="0" width="256" height="256" viewBox="0 0 256 256"><defs/><defs/><defs/><defs/><g transform="matrix(0.333333,0,0,0.333333,-42.6667,-42.6667)"><g id="Page-1" fill="none" fill-rule="evenodd"><g id="页面"/><path id="Fill-1" fill="#ffffff" fill-opacity="1" stroke-width="0.762145" transform="matrix(-1,0,0,1,1024,0)" d="M 224 415.44 C 224 336.464 252.126 269.097 307.995 212.58 C 363.875 156.072 431.741 128 511.246 128 C 590.746 128 658.616 156.072 715.251 212.58 C 771.874 269.097 800 336.464 800 415.44 C 800 426.291 799.625 437.52 798.492 448.374 C 796.62 450.247 796.995 453.983 796.995 455.855 L 792.493 482.807 C 790.617 482.807 791 485.428 791 487.3 C 787.995 497.399 784.998 506.381 781.996 514.244 L 781.996 515.746 C 781.996 515.746 781.621 516.117 780.495 517.24 C 776.372 528.095 772.616 537.83 768.489 545.681 C 768.489 546.805 768.114 547.183 766.989 547.183 C 762.112 557.285 756.492 566.651 750.489 575.628 C 744.495 584.612 738.113 593.595 730.984 602.572 C 730.984 602.572 730.609 602.951 730.247 603.33 L 729.491 604.062 C 723.497 611.181 716.373 617.917 708.499 625.036 C 708.499 625.036 707.748 625.406 706.243 626.53 C 702.495 629.142 702.12 631.393 697.985 635.507 C 696.117 635.507 693.5 636.627 693.5 638.508 L 679.243 649.725 L 676.241 651.967 L 673.99 653.472 C 664.998 660.583 658.612 668.447 654.489 677.426 C 650.367 686.408 646.623 692.766 642.496 696.889 C 638.369 700.999 630.874 702.876 619.989 702.876 L 403.99 702.876 C 393.119 702.876 385.619 700.995 381.497 696.889 C 377.366 692.766 373.238 686.408 368.74 677.426 C 364.238 668.447 357.869 660.583 349.997 653.472 C 348.864 653.472 348.121 653.094 346.992 651.967 L 344.742 649.725 L 330.493 638.508 L 325.995 635.507 L 320 629.529 C 320 629.529 318.491 628.022 315.498 625.036 L 294.492 604.062 C 294.492 604.062 294.121 603.704 293.746 603.33 L 292.995 602.572 C 279.114 584.612 267.121 567.013 256.999 547.183 C 255.869 547.183 255.49 546.809 255.49 545.681 C 251.367 537.83 247.62 528.095 243.497 517.24 C 242.371 517.24 241.992 516.865 241.992 515.746 L 241.992 514.244 C 238.999 506.381 235.993 497.399 232.996 487.3 C 232.996 487.3 232.621 486.548 232.241 485.054 L 231.491 482.811 C 229.616 474.952 228.119 465.969 226.994 455.859 C 226.994 453.987 225.493 450.251 225.493 448.378 C 224.379 437.52 224.004 426.291 224.004 415.44 L 224 415.44 M 393.498 750.784 L 633.5 750.784 C 647.377 750.784 657.495 760.885 657.495 774.736 C 657.495 788.583 647.377 798.685 633.5 798.685 L 393.498 798.685 C 379.621 798.685 369.494 788.583 369.494 774.736 C 369.494 760.885 379.621 750.784 393.498 750.784 M 403.995 846.597 L 621.494 846.597 L 532.99 891.498 C 519.112 897.501 503.367 897.501 489.49 891.498 L 403.995 846.597 M 537.496 271.718 C 566.376 271.718 593.748 283.322 619.247 306.904 C 644.751 330.477 657.495 359.672 657.495 394.483 C 657.495 406.457 667.621 418.435 681.498 418.435 C 695.375 418.435 705.497 406.457 705.497 394.483 C 705.497 342.455 688.622 301.283 654.489 270.228 C 620.369 239.157 581.371 223.81 537.496 223.81 C 523.618 223.81 513.493 233.912 513.493 247.762 C 513.493 261.612 523.618 271.718 537.496 271.718"/></g></g></svg>
