<?xml version="1.0" encoding="UTF-8" standalone="yes"?><svg xmlns="http://www.w3.org/2000/svg" xmlns:xlink="http://www.w3.org/1999/xlink" version="1.2" baseProfile="tiny" x="0" y="0" width="256" height="256" viewBox="0 0 256 256"><defs/><defs/><defs/><defs/><defs/><defs/><g transform="matrix(8.8351,0,0,8.8351,-13.2636,-17.6702)"><g id="Page-1" fill="none" fill-rule="evenodd" stroke="none" stroke-width="1"><g id="分组-183" fill="#262626" fill-rule="nonzero" transform="matrix(1,0,0,1,-62,2)"><g id="yinzhang" transform="matrix(1,0,0,1,65,0)"><path id="形状" fill="#3ab8a4" fill-opacity="1" d="M 0.00125787 26.0778 L 25.9764 26.0778 L 25.9764 28.9753 L 0.00125787 28.9753 L 0.00125787 26.0778 M 24.057 18.351 L 17.7549 18.351 C 17.1866 17.6776 16.783 16.9143 16.7169 16.0584 C 16.4463 12.5575 20.2042 10.8812 20.2042 6.58757 C 20.2042 2.94088 17.4384 -8.52651e-14 12.989 -8.52651e-14 C 8.53945 -8.52651e-14 5.77359 2.94088 5.77359 6.58757 C 5.77359 10.8812 9.53157 12.5576 9.26097 16.0584 C 9.19478 16.9143 8.79122 17.6776 8.22296 18.351 L 1.9207 18.351 C 0.8607 18.351 0.00134244 19.2139 0.00134244 20.278 L 0.00134244 24.1461 L 25.9765 24.1461 L 25.9765 20.278 C 25.9765 19.2139 25.1172 18.351 24.057 18.351"/></g></g><g id="IIIII-Copy-40" transform="matrix(1,0,0,1,-64,0)"/></g></g></svg>
